<svg width="252" height="41" viewBox="0 0 252 41" fill="none" xmlns="http://www.w3.org/2000/svg">
<path d="M0.472 40V1.26H9.78V32.2H24.86V40H0.472ZM45.9643 40.728C35.4083 40.728 28.2323 33.136 28.2323 20.448C28.2323 7.76 35.4083 0.583999 45.9643 0.583999C56.5203 0.583999 63.6963 7.812 63.6963 20.448C63.6963 33.136 56.5203 40.728 45.9643 40.728ZM45.9643 32.72C51.0603 32.72 54.2323 27.936 54.2323 20.448C54.2323 12.96 51.0603 8.54 45.9643 8.54C40.8683 8.54 37.7483 12.96 37.7483 20.448C37.7483 27.936 40.8683 32.72 45.9643 32.72ZM71.9192 40V1.26H81.3832L91.0032 19.824L94.7992 28.404H95.0592C94.5912 24.296 93.8112 18.732 93.8112 14.104V1.26H102.651V40H93.1872L83.6192 21.332L79.8232 12.856H79.5632C79.9792 17.172 80.7592 22.476 80.7592 27.156V40H71.9192ZM130.09 40.728C119.378 40.728 110.902 33.968 110.902 20.864C110.902 7.968 119.586 0.583999 129.934 0.583999C135.602 0.583999 139.658 2.976 142.31 5.628L137.422 11.556C135.498 9.84 133.47 8.54 130.246 8.54C124.526 8.54 120.418 13.012 120.418 20.552C120.418 28.248 123.85 32.72 131.078 32.72C132.43 32.72 133.886 32.356 134.718 31.732V25.492H128.582V17.9H142.986V35.996C140.282 38.596 135.498 40.728 130.09 40.728ZM151.847 40V1.26H162.975C174.779 1.26 182.579 6.98 182.579 20.448C182.579 33.916 174.779 40 163.495 40H151.847ZM161.155 32.512H162.403C168.643 32.512 173.063 29.652 173.063 20.448C173.063 11.244 168.643 8.696 162.403 8.696H161.155V32.512ZM206.734 40.728C196.178 40.728 189.002 33.136 189.002 20.448C189.002 7.76 196.178 0.583999 206.734 0.583999C217.29 0.583999 224.466 7.812 224.466 20.448C224.466 33.136 217.29 40.728 206.734 40.728ZM206.734 32.72C211.83 32.72 215.002 27.936 215.002 20.448C215.002 12.96 211.83 8.54 206.734 8.54C201.638 8.54 198.518 12.96 198.518 20.448C198.518 27.936 201.638 32.72 206.734 32.72ZM232.689 40V1.26H242.153L251.773 19.824L255.569 28.404H255.829C255.361 24.296 254.581 18.732 254.581 14.104V1.26H263.421V40H253.957L244.389 21.332L240.593 12.856H240.333C240.749 17.172 241.529 22.476 241.529 27.156V40H232.689ZM290.86 40.728C280.147 40.728 271.671 33.968 271.671 20.864C271.671 7.968 280.355 0.583999 290.703 0.583999C296.371 0.583999 300.427 2.976 303.079 5.628L298.192 11.556C296.268 9.84 294.24 8.54 291.016 8.54C285.295 8.54 281.187 13.012 281.187 20.552C281.187 28.248 284.62 32.72 291.848 32.72C293.199 32.72 294.655 32.356 295.488 31.732V25.492H289.351V17.9H303.756V35.996C301.052 38.596 296.268 40.728 290.86 40.728ZM328.996 40.728C319.168 40.728 310.848 33.968 310.848 20.864C310.848 7.968 319.48 0.583999 329.308 0.583999C334.352 0.583999 338.408 2.924 341.06 5.628L336.224 11.556C334.248 9.788 332.22 8.54 329.464 8.54C324.472 8.54 320.364 13.012 320.364 20.552C320.364 28.248 323.9 32.72 329.36 32.72C332.48 32.72 334.924 31.16 336.744 29.184L341.632 35.008C338.356 38.804 334.04 40.728 328.996 40.728ZM343.452 40L355.464 1.26H366.592L378.604 40H368.828L363.992 20.656C362.952 16.808 361.964 12.18 360.924 8.228H360.716C359.78 12.284 358.74 16.808 357.752 20.656L352.916 40H343.452ZM351.616 31.108V23.932H370.336V31.108H351.616ZM383.708 40V1.26H397.332C405.808 1.26 412.828 4.328 412.828 13.896C412.828 23.1 405.756 27.156 397.54 27.156H393.016V40H383.708ZM393.016 19.824H397.072C401.596 19.824 403.78 17.692 403.78 13.896C403.78 9.996 401.284 8.644 396.812 8.644H393.016V19.824ZM420.447 40V1.26H444.991V9.008H429.755V16.184H442.703V23.984H429.755V32.2H445.563V40H420.447Z" fill="#4A4D52" fill-opacity="0.04"/>
</svg>
