<svg width="779" height="155" viewBox="0 0 779 155" fill="none" xmlns="http://www.w3.org/2000/svg">
<path fill-rule="evenodd" clip-rule="evenodd" d="M778.6 0.161085C776.864 0.0538961 775.102 2.86102e-06 773.314 2.86102e-06C732.714 2.86102e-06 705.114 27.6 705.114 76.4C705.114 125.2 732.714 154.4 773.314 154.4C775.102 154.4 776.864 154.343 778.6 154.231V123.127C776.905 123.44 775.142 123.6 773.314 123.6C753.714 123.6 741.714 105.2 741.714 76.4C741.714 47.6 753.714 30.6 773.314 30.6C775.142 30.6 776.905 30.7478 778.6 31.0392V0.161085ZM0 2.59999V151.6H93.8V121.6H35.8V2.59999H0ZM102.77 76.4C102.77 125.2 130.37 154.4 170.97 154.4C211.57 154.4 239.17 125.2 239.17 76.4C239.17 27.8 211.57 2.86102e-06 170.97 2.86102e-06C130.37 2.86102e-06 102.77 27.6 102.77 76.4ZM202.77 76.4C202.77 105.2 190.57 123.6 170.97 123.6C151.37 123.6 139.37 105.2 139.37 76.4C139.37 47.6 151.37 30.6 170.97 30.6C190.57 30.6 202.77 47.6 202.77 76.4ZM266.797 2.59999V151.6H300.797V102.2C300.797 88.9349 299.168 74.3663 297.67 60.9758C297.135 56.1961 296.618 51.5666 296.197 47.2H297.197L311.797 79.8L348.597 151.6H384.997V2.59999H350.997V52C350.997 66.7564 353.059 83.9869 354.789 98.4499C355.146 101.433 355.489 104.298 355.797 107H354.797L340.197 74L303.197 2.59999H266.797ZM412.731 78C412.731 128.4 445.331 154.4 486.531 154.4C507.331 154.4 525.731 146.2 536.131 136.2V66.6H480.731V95.8H504.331V119.8C501.131 122.2 495.531 123.6 490.331 123.6C462.531 123.6 449.331 106.4 449.331 76.8C449.331 47.8 465.131 30.6 487.131 30.6C499.531 30.6 507.331 35.6 514.731 42.2L533.531 19.4C523.331 9.2 507.731 2.86102e-06 485.931 2.86102e-06C446.131 2.86102e-06 412.731 28.4 412.731 78ZM566.211 2.59999V151.6H611.011C654.411 151.6 684.411 128.2 684.411 76.4C684.411 24.6 654.411 2.59999 609.011 2.59999H566.211ZM606.811 122.8H602.011V31.2H606.811C630.811 31.2 647.811 41 647.811 76.4C647.811 111.8 630.811 122.8 606.811 122.8Z" fill="#4A4D52" fill-opacity="0.04"/>
</svg>
