<svg width="161" height="42" viewBox="0 0 161 42" fill="none" xmlns="http://www.w3.org/2000/svg">
<path d="M-13.4051 40.9758L-13.6122 2.23631L-4.14837 2.1857L5.57076 20.698L9.41259 29.2576L9.67259 29.2562C9.18263 25.1507 8.37289 19.591 8.34814 14.9631L8.27945 2.11924L17.1193 2.07197L17.3265 40.8114L7.86263 40.862L-1.80506 22.2455L-5.64634 13.7899L-5.90633 13.7913C-5.46726 18.105 -4.65891 23.4047 -4.63388 28.0847L-4.5652 40.9285L-13.4051 40.9758ZM43.7289 41.3982C33.9011 41.4508 25.5451 34.7354 25.475 21.6316C25.406 8.73575 33.9984 1.3057 43.8263 1.25314C48.8702 1.22617 52.9387 3.54444 55.6051 6.23423L50.8008 12.188C48.8154 10.4306 46.7808 9.19346 44.0248 9.20819C39.0329 9.23489 34.9489 13.7288 34.9892 21.2687C35.0303 28.9646 38.5902 33.4176 44.0501 33.3884C47.1701 33.3717 49.6057 31.7987 51.4151 29.813L56.3342 35.6107C53.0785 39.4242 48.7729 41.3713 43.7289 41.3982ZM58.1804 40.5929L69.9851 1.78926L81.1129 1.72976L93.3319 40.405L83.5561 40.4572L78.6167 21.1394C77.5561 17.297 76.5434 12.6744 75.4823 8.72797L75.2743 8.72908C74.36 12.79 73.3442 17.3195 72.3768 21.1728L67.6443 40.5423L58.1804 40.5929ZM66.2968 31.6574L66.2584 24.4815L84.9781 24.3814L85.0165 31.5573L66.2968 31.6574ZM98.436 40.3777L98.2288 1.63823L111.853 1.56537C120.329 1.52005 127.365 4.55046 127.416 14.1183C127.465 23.3222 120.415 27.416 112.199 27.4599L107.675 27.4841L107.744 40.3279L98.436 40.3777ZM107.636 20.1522L111.692 20.1305C116.216 20.1063 118.388 17.9627 118.368 14.1667C118.347 10.2668 115.844 8.92813 111.372 8.95205L107.576 8.97235L107.636 20.1522ZM135.175 40.1812L134.968 1.44176L159.511 1.31051L159.553 9.05841L144.317 9.13988L144.355 16.3158L157.303 16.2465L157.345 24.0464L144.397 24.1157L144.441 32.3315L160.249 32.247L160.29 40.0469L135.175 40.1812Z" fill="#4A4D52" fill-opacity="0.04"/>
</svg>
