<svg xmlns="http://www.w3.org/2000/svg" xml:space="preserve" viewBox="0 0 512 512"><path fill="#fdfdfd" d="M414.961 12H95.04C48.073 12 10 50.073 10 97.04v319.921C10 463.927 48.073 502 95.04 502h319.921C461.927 502 500 463.927 500 416.961V97.04C500 50.073 461.927 12 414.961 12zm-26.32 324.882c-3.479 3.625-7.701 7.509-13.225 11.928-13.815 11.052-92 69-111 81s-26 9-28 4 4-17 7-30 .887-18.018-12-20a30.112 30.112 0 0 1-2.811-.579C139.168 372.51 70.416 308.136 70.416 230.31c0-85.328 82.641-154.5 184.584-154.5s184.584 69.172 184.584 154.5c0 41.319-19.379 78.85-50.943 106.572z" class="fill-000000"/><path fill="#fdfdfd" d="M176 287.472h-27.493v-66.488c0-3.78-.862-6.596-2.586-8.444-1.725-1.848-3.979-2.772-6.761-2.772-2.742 0-4.954.935-6.637 2.804-1.683 1.87-2.523 4.674-2.523 8.413v70.352c0 3.988.882 6.877 2.648 8.662 1.765 1.787 4.662 2.68 8.692 2.68H176c3.032 0 5.338-.695 6.917-2.088 1.578-1.391 2.368-3.209 2.368-5.453 0-2.201-.801-4.029-2.399-5.482-1.6-1.458-3.895-2.184-6.886-2.184zm29.16-77.705c-2.701 0-4.902.935-6.605 2.804-1.703 1.87-2.555 4.674-2.555 8.413v71.973c0 3.738.862 6.553 2.586 8.443 1.724 1.889 3.915 2.834 6.574 2.834 2.783 0 5.037-.934 6.762-2.803 1.723-1.869 2.586-4.695 2.586-8.475v-71.973c0-3.78-.863-6.596-2.586-8.444-1.725-1.848-3.979-2.772-6.762-2.772zm93.667 0c-2.576 0-4.622.883-6.138 2.648-1.517 1.766-2.274 4.414-2.274 7.944v54.339L255 220.858a719.555 719.555 0 0 0-2.897-4.549c-.936-1.454-1.85-2.639-2.742-3.553a10.333 10.333 0 0 0-3.115-2.181c-1.185-.539-2.607-.81-4.269-.81-2.119 0-4.093.592-5.92 1.775-1.829 1.184-3.138 2.711-3.926 4.58-.665 1.704-.997 4.051-.997 7.041v70.479c0 3.447.788 6.074 2.368 7.883 1.578 1.807 3.676 2.709 6.293 2.709 2.534 0 4.611-.893 6.231-2.68 1.62-1.785 2.431-4.424 2.431-7.912v-53.528L283 293.329a260.693 260.693 0 0 0 2.99 4.27c.997 1.391 2.077 2.607 3.241 3.645 1.162 1.039 2.408 1.797 3.738 2.273 1.329.479 2.824.717 4.486.717 6.646 0 9.971-4.008 9.971-12.025V220.36c0-3.53-.77-6.179-2.306-7.944-1.536-1.767-3.635-2.649-6.293-2.649zm72.387 77.112h-32.707v-25.984h27.972c2.866 0 4.984-.654 6.355-1.963s2.057-3 2.057-5.078-.696-3.75-2.088-5.018c-1.393-1.266-3.5-1.9-6.324-1.9h-27.972v-22.433h31.273c2.949 0 5.142-.654 6.574-1.963 1.434-1.309 2.15-3.043 2.15-5.203 0-2.119-.717-3.832-2.15-5.141-1.433-1.309-3.625-1.963-6.574-1.963h-38.439c-2.617 0-4.768.385-6.449 1.152-1.683.77-2.92 1.994-3.708 3.677-.79 1.683-1.184 3.854-1.184 6.512v68.67c0 3.988.882 6.877 2.647 8.662 1.766 1.787 4.663 2.68 8.693 2.68h39.873c2.907 0 5.099-.676 6.574-2.025 1.474-1.35 2.212-3.105 2.212-5.266 0-2.244-.738-4.039-2.212-5.391-1.474-1.349-3.666-2.025-6.573-2.025z" class="fill-000000"/></svg>