<svg width="857" height="78" viewBox="0 0 857 78" fill="none" xmlns="http://www.w3.org/2000/svg">
<path fill-rule="evenodd" clip-rule="evenodd" d="M0.599976 1.49995V76H47.5V61H18.5V1.49995H0.599976ZM53.9851 38.4C53.9851 62.8 67.7851 77.4 88.0851 77.4C108.385 77.4 122.185 62.8 122.185 38.4C122.185 14.1 108.385 0.199951 88.0851 0.199951C67.7851 0.199951 53.9851 14 53.9851 38.4ZM103.985 38.4C103.985 52.8 97.8851 62 88.0851 62C78.2851 62 72.2851 52.8 72.2851 38.4C72.2851 23.9999 78.2851 15.5 88.0851 15.5C97.8851 15.5 103.985 23.9999 103.985 38.4ZM137.998 1.49995V76H154.998V51.3C154.998 44.6674 154.184 37.3831 153.435 30.6878C153.168 28.298 152.909 25.9832 152.698 23.8H153.198L160.498 40.1L178.898 76H197.098V1.49995H180.098V26.1999C180.098 33.5781 181.129 42.1934 181.995 49.4249C182.173 50.9164 182.345 52.3491 182.498 53.7H181.998L174.698 37.1999L156.198 1.49995H137.998ZM212.966 39.1999C212.966 64.4 229.266 77.4 249.866 77.4C260.266 77.4 269.466 73.3 274.666 68.3V33.5H246.966V48.1H258.766V60.1C257.166 61.3 254.366 62 251.766 62C237.866 62 231.266 53.4 231.266 38.6C231.266 24.0999 239.166 15.5 250.166 15.5C256.366 15.5 260.266 17.9999 263.966 21.2999L273.366 9.89995C268.266 4.79995 260.466 0.199951 249.566 0.199951C229.666 0.199951 212.966 14.3999 212.966 39.1999ZM291.705 1.49995V76H314.105C335.805 76 350.805 64.3 350.805 38.4C350.805 12.4999 335.805 1.49995 313.105 1.49995H291.705ZM312.005 61.6H309.605V15.7999H312.005C324.005 15.7999 332.505 20.6999 332.505 38.4C332.505 56.1 324.005 61.6 312.005 61.6ZM363.157 38.4C363.157 62.8 376.957 77.4 397.257 77.4C417.557 77.4 431.357 62.8 431.357 38.4C431.357 14.1 417.557 0.199951 397.257 0.199951C376.957 0.199951 363.157 14 363.157 38.4ZM413.157 38.4C413.157 52.8 407.057 62 397.257 62C387.457 62 381.457 52.8 381.457 38.4C381.457 23.9999 387.457 15.5 397.257 15.5C407.057 15.5 413.157 23.9999 413.157 38.4ZM447.17 1.49995V76H464.17V51.3C464.17 44.6674 463.356 37.3832 462.607 30.688C462.34 28.2981 462.081 25.9833 461.87 23.8H462.37L469.67 40.1L488.07 76H506.27V1.49995H489.27V26.1999C489.27 33.5781 490.301 42.1934 491.166 49.4249C491.345 50.9164 491.516 52.3491 491.67 53.7H491.17L483.87 37.1999L465.37 1.49995H447.17ZM522.137 39.1999C522.137 64.4 538.437 77.4 559.038 77.4C569.437 77.4 578.637 73.3 583.837 68.3V33.5H556.137V48.1H567.937V60.1C566.337 61.3 563.538 62 560.937 62C547.038 62 540.437 53.4 540.437 38.6C540.437 24.0999 548.337 15.5 559.337 15.5C565.538 15.5 569.437 17.9999 573.137 21.2999L582.538 9.89995C577.437 4.79995 569.637 0.199951 558.737 0.199951C538.837 0.199951 522.137 14.3999 522.137 39.1999ZM597.477 39.1999C597.477 64.4 613.477 77.4 632.377 77.4C642.077 77.4 650.377 73.6999 656.677 66.4L647.277 55.2C643.777 59 639.077 62 633.077 62C622.577 62 615.777 53.4 615.777 38.6C615.777 24.0999 623.677 15.5 633.277 15.5C638.577 15.5 642.477 17.9 646.277 21.2999L655.577 9.89995C650.477 4.69995 642.677 0.199951 632.977 0.199951C614.077 0.199951 597.477 14.3999 597.477 39.1999ZM683.277 1.49995L660.177 76H678.377L682.652 58.9H704.702L708.977 76H727.777L704.677 1.49995H683.277ZM701.252 45.1L699.677 38.8C698.622 34.8967 697.595 30.5762 696.566 26.2492C695.644 22.3728 694.722 18.4912 693.777 14.9H693.377L693.177 15.7655C691.429 23.3391 689.507 31.6725 687.677 38.8L686.102 45.1H701.252ZM737.592 1.49995V76H755.492V51.3H764.192C779.992 51.3 793.592 43.5 793.592 25.7999C793.592 7.39995 780.092 1.49995 763.792 1.49995H737.592ZM763.292 37.1999H755.492V15.6999H762.792C771.392 15.6999 776.192 18.3 776.192 25.7999C776.192 33.1 771.992 37.1999 763.292 37.1999ZM808.245 1.49995V76H856.545V61H826.144V45.1999H851.045V30.1999H826.144V16.4H855.444V1.49995H808.245Z" fill="#4A4D52" fill-opacity="0.04"/>
</svg>
