<svg width="896" height="145" viewBox="0 0 896 145" fill="none" xmlns="http://www.w3.org/2000/svg">
<path fill-rule="evenodd" clip-rule="evenodd" d="M-169 151.6H-161C-117.6 151.6 -87.6 128.2 -87.6 76.4C-87.6 24.6 -117.6 2.59996 -163 2.59996H-169V31.2H-165.2C-141.2 31.2 -124.2 41 -124.2 76.4C-124.2 111.8 -141.2 122.8 -165.2 122.8H-169V151.6ZM-66.8969 76.4C-66.8969 125.2 -39.2969 154.4 1.30313 154.4C41.9031 154.4 69.5031 125.2 69.5031 76.4C69.5031 27.8 41.9031 -2.76566e-05 1.30313 -2.76566e-05C-39.2969 -2.76566e-05 -66.8969 27.6 -66.8969 76.4ZM33.1031 76.4C33.1031 105.2 20.9031 123.6 1.30313 123.6C-18.2969 123.6 -30.2969 105.2 -30.2969 76.4C-30.2969 47.6 -18.2969 30.6 1.30313 30.6C20.9031 30.6 33.1031 47.6 33.1031 76.4ZM97.1297 2.59996V151.6H131.13V102.2C131.13 88.9348 129.5 74.3663 128.003 60.9757C127.468 56.1961 126.951 51.5666 126.53 47.2H127.53L142.13 79.8L178.93 151.6H215.33V2.59996H181.33V52C181.33 66.7565 183.392 83.9872 185.122 98.4503C185.479 101.433 185.822 104.298 186.13 107H185.13L170.53 74L133.53 2.59996H97.1297ZM243.064 78C243.064 128.4 275.664 154.4 316.864 154.4C337.664 154.4 356.064 146.2 366.464 136.2V66.6H311.064V95.8H334.664V119.8C331.464 122.2 325.864 123.6 320.664 123.6C292.864 123.6 279.664 106.4 279.664 76.8C279.664 47.8 295.464 30.6 317.464 30.6C329.864 30.6 337.664 35.6 345.064 42.2L363.864 19.4C353.664 9.19997 338.064 -2.76566e-05 316.264 -2.76566e-05C276.464 -2.76566e-05 243.064 28.4 243.064 78ZM389.744 78C389.744 128.4 421.744 154.4 459.544 154.4C478.944 154.4 495.544 147 508.144 132.4L489.344 110C482.344 117.6 472.944 123.6 460.944 123.6C439.944 123.6 426.344 106.4 426.344 76.8C426.344 47.8 442.144 30.6 461.344 30.6C471.944 30.6 479.744 35.4 487.344 42.2L505.944 19.4C495.744 8.99996 480.144 -2.76566e-05 460.744 -2.76566e-05C422.944 -2.76566e-05 389.744 28.4 389.744 78ZM557.342 2.59996L511.142 151.6H547.542L556.092 117.4H600.192L608.742 151.6H646.342L600.142 2.59996H557.342ZM593.292 89.8L590.142 77.2C588.032 69.3935 585.978 60.7524 583.921 52.0984C582.078 44.3456 580.232 36.5825 578.342 29.4H577.542L577.143 31.1313C573.648 46.2786 569.802 62.9453 566.142 77.2L562.992 89.8H593.292ZM661.973 2.59996V151.6H697.773V102.2H715.173C746.773 102.2 773.973 86.6 773.973 51.2C773.973 14.4 746.973 2.59996 714.373 2.59996H661.973ZM713.373 74H697.773V31H712.373C729.573 31 739.173 36.2 739.173 51.2C739.173 65.8 730.773 74 713.373 74ZM799.278 2.59996V151.6H895.878V121.6H835.078V90H884.878V60H835.078V32.4H893.678V2.59996H799.278Z" fill="#4A4D52" fill-opacity="0.04"/>
</svg>
